<mxfile host="app.diagrams.net" agent="Mozilla/5.0 (Windows NT 10.0; Win64; x64) AppleWebKit/537.36 (KHTML, like Gecko) Chrome/141.0.0.0 Safari/537.36 Edg/141.0.0.0" version="28.2.8">
  <diagram name="Page-1" id="RxBSyc3wob9okjWbrA7p">
    <mxGraphModel dx="1104" dy="678" grid="0" gridSize="10" guides="1" tooltips="1" connect="1" arrows="1" fold="1" page="1" pageScale="1" pageWidth="1169" pageHeight="827" math="0" shadow="0" adaptiveColors="none">
      <root>
        <mxCell id="0" />
        <mxCell id="1" parent="0" />
        <mxCell id="P-BhwncRUUNvh6ykNIa5-3" value="" style="group" vertex="1" connectable="0" parent="1">
          <mxGeometry x="86" y="226" width="997" height="376" as="geometry" />
        </mxCell>
        <mxCell id="Tet-FPK4zb9LAncyXw8V-1" value="&lt;font face=&quot;SF Pro Display&quot;&gt;resource.yaml&lt;/font&gt;&lt;div&gt;&lt;font face=&quot;SF Pro Display&quot;&gt;(from spaceship)&lt;/font&gt;&lt;/div&gt;" style="rounded=1;whiteSpace=wrap;html=1;glass=0;labelBackgroundColor=none;" parent="P-BhwncRUUNvh6ykNIa5-3" vertex="1">
          <mxGeometry x="475" width="120" height="60" as="geometry" />
        </mxCell>
        <mxCell id="Tet-FPK4zb9LAncyXw8V-3" value="Live&lt;div&gt;Database&lt;/div&gt;" style="shape=cylinder3;whiteSpace=wrap;html=1;boundedLbl=1;backgroundOutline=1;size=15;labelBackgroundColor=none;" parent="P-BhwncRUUNvh6ykNIa5-3" vertex="1">
          <mxGeometry x="894" y="192" width="103" height="76" as="geometry" />
        </mxCell>
        <mxCell id="Tet-FPK4zb9LAncyXw8V-4" value="Sync&lt;div&gt;Database&lt;/div&gt;" style="shape=cylinder3;whiteSpace=wrap;html=1;boundedLbl=1;backgroundOutline=1;size=15;labelBackgroundColor=none;" parent="P-BhwncRUUNvh6ykNIa5-3" vertex="1">
          <mxGeometry x="891" y="88" width="103" height="76" as="geometry" />
        </mxCell>
        <mxCell id="Tet-FPK4zb9LAncyXw8V-8" value="Sync Engine" style="swimlane;fontStyle=0;childLayout=stackLayout;horizontal=1;startSize=30;horizontalStack=0;resizeParent=1;resizeParentMax=0;resizeLast=0;collapsible=1;marginBottom=0;whiteSpace=wrap;html=1;rounded=1;labelBackgroundColor=none;" parent="P-BhwncRUUNvh6ykNIa5-3" vertex="1">
          <mxGeometry x="428" y="100" width="195" height="180" as="geometry" />
        </mxCell>
        <mxCell id="Tet-FPK4zb9LAncyXw8V-9" value="get" style="text;strokeColor=none;fillColor=none;align=left;verticalAlign=middle;spacingLeft=4;spacingRight=4;overflow=hidden;points=[[0,0.5],[1,0.5]];portConstraint=eastwest;rotatable=0;whiteSpace=wrap;html=1;labelBackgroundColor=none;" parent="Tet-FPK4zb9LAncyXw8V-8" vertex="1">
          <mxGeometry y="30" width="195" height="30" as="geometry" />
        </mxCell>
        <mxCell id="Tet-FPK4zb9LAncyXw8V-20" value="dashboard" style="text;strokeColor=none;fillColor=none;align=left;verticalAlign=middle;spacingLeft=4;spacingRight=4;overflow=hidden;points=[[0,0.5],[1,0.5]];portConstraint=eastwest;rotatable=0;whiteSpace=wrap;html=1;labelBackgroundColor=none;" parent="Tet-FPK4zb9LAncyXw8V-8" vertex="1">
          <mxGeometry y="60" width="195" height="30" as="geometry" />
        </mxCell>
        <mxCell id="Tet-FPK4zb9LAncyXw8V-10" value="fetch" style="text;strokeColor=none;fillColor=none;align=left;verticalAlign=middle;spacingLeft=4;spacingRight=4;overflow=hidden;points=[[0,0.5],[1,0.5]];portConstraint=eastwest;rotatable=0;whiteSpace=wrap;html=1;labelBackgroundColor=none;" parent="Tet-FPK4zb9LAncyXw8V-8" vertex="1">
          <mxGeometry y="90" width="195" height="30" as="geometry" />
        </mxCell>
        <mxCell id="Tet-FPK4zb9LAncyXw8V-11" value="diff" style="text;strokeColor=none;fillColor=none;align=left;verticalAlign=middle;spacingLeft=4;spacingRight=4;overflow=hidden;points=[[0,0.5],[1,0.5]];portConstraint=eastwest;rotatable=0;whiteSpace=wrap;html=1;labelBackgroundColor=none;" parent="Tet-FPK4zb9LAncyXw8V-8" vertex="1">
          <mxGeometry y="120" width="195" height="30" as="geometry" />
        </mxCell>
        <mxCell id="Tet-FPK4zb9LAncyXw8V-12" value="generate" style="text;strokeColor=none;fillColor=none;align=left;verticalAlign=middle;spacingLeft=4;spacingRight=4;overflow=hidden;points=[[0,0.5],[1,0.5]];portConstraint=eastwest;rotatable=0;whiteSpace=wrap;html=1;labelBackgroundColor=none;" parent="Tet-FPK4zb9LAncyXw8V-8" vertex="1">
          <mxGeometry y="150" width="195" height="30" as="geometry" />
        </mxCell>
        <mxCell id="Tet-FPK4zb9LAncyXw8V-43" style="edgeStyle=orthogonalEdgeStyle;rounded=0;orthogonalLoop=1;jettySize=auto;html=1;exitX=1;exitY=0.3333333333333333;exitDx=0;exitDy=0;exitPerimeter=0;labelBackgroundColor=none;fontColor=default;" parent="P-BhwncRUUNvh6ykNIa5-3" source="Tet-FPK4zb9LAncyXw8V-13" target="Tet-FPK4zb9LAncyXw8V-16" edge="1">
          <mxGeometry relative="1" as="geometry" />
        </mxCell>
        <mxCell id="Tet-FPK4zb9LAncyXw8V-44" style="edgeStyle=orthogonalEdgeStyle;rounded=0;orthogonalLoop=1;jettySize=auto;html=1;exitX=1;exitY=0.3333333333333333;exitDx=0;exitDy=0;exitPerimeter=0;startArrow=classic;startFill=1;labelBackgroundColor=none;fontColor=default;" parent="P-BhwncRUUNvh6ykNIa5-3" source="Tet-FPK4zb9LAncyXw8V-13" target="Tet-FPK4zb9LAncyXw8V-17" edge="1">
          <mxGeometry relative="1" as="geometry" />
        </mxCell>
        <mxCell id="Tet-FPK4zb9LAncyXw8V-13" value="Actor" style="shape=umlActor;verticalLabelPosition=bottom;verticalAlign=top;html=1;outlineConnect=0;labelBackgroundColor=none;" parent="P-BhwncRUUNvh6ykNIa5-3" vertex="1">
          <mxGeometry y="111" width="30" height="60" as="geometry" />
        </mxCell>
        <mxCell id="Tet-FPK4zb9LAncyXw8V-15" value="Spaceship Sync" style="swimlane;fontStyle=0;childLayout=stackLayout;horizontal=1;startSize=30;horizontalStack=0;resizeParent=1;resizeParentMax=0;resizeLast=0;collapsible=1;marginBottom=0;whiteSpace=wrap;html=1;rounded=1;labelBackgroundColor=none;" parent="P-BhwncRUUNvh6ykNIa5-3" vertex="1">
          <mxGeometry x="137" y="100" width="195" height="90" as="geometry" />
        </mxCell>
        <mxCell id="Tet-FPK4zb9LAncyXw8V-16" value="diff dashboard" style="text;strokeColor=none;fillColor=none;align=left;verticalAlign=middle;spacingLeft=4;spacingRight=4;overflow=hidden;points=[[0,0.5],[1,0.5]];portConstraint=eastwest;rotatable=0;whiteSpace=wrap;html=1;labelBackgroundColor=none;" parent="Tet-FPK4zb9LAncyXw8V-15" vertex="1">
          <mxGeometry y="30" width="195" height="30" as="geometry" />
        </mxCell>
        <mxCell id="Tet-FPK4zb9LAncyXw8V-17" value="diff compare" style="text;strokeColor=none;fillColor=none;align=left;verticalAlign=middle;spacingLeft=4;spacingRight=4;overflow=hidden;points=[[0,0.5],[1,0.5]];portConstraint=eastwest;rotatable=0;whiteSpace=wrap;html=1;labelBackgroundColor=none;" parent="Tet-FPK4zb9LAncyXw8V-15" vertex="1">
          <mxGeometry y="60" width="195" height="30" as="geometry" />
        </mxCell>
        <mxCell id="Tet-FPK4zb9LAncyXw8V-22" value="" style="edgeStyle=orthogonalEdgeStyle;rounded=0;orthogonalLoop=1;jettySize=auto;html=1;entryX=0.5;entryY=1;entryDx=0;entryDy=0;startArrow=classic;startFill=1;labelBackgroundColor=none;fontColor=default;" parent="P-BhwncRUUNvh6ykNIa5-3" source="Tet-FPK4zb9LAncyXw8V-9" target="Tet-FPK4zb9LAncyXw8V-1" edge="1">
          <mxGeometry relative="1" as="geometry">
            <Array as="points">
              <mxPoint x="643" y="145" />
              <mxPoint x="643" y="84" />
              <mxPoint x="535" y="84" />
            </Array>
          </mxGeometry>
        </mxCell>
        <mxCell id="Tet-FPK4zb9LAncyXw8V-25" style="edgeStyle=orthogonalEdgeStyle;rounded=0;orthogonalLoop=1;jettySize=auto;html=1;exitX=1;exitY=0.5;exitDx=0;exitDy=0;entryX=0;entryY=0.5;entryDx=0;entryDy=0;labelBackgroundColor=none;fontColor=default;" parent="P-BhwncRUUNvh6ykNIa5-3" source="Tet-FPK4zb9LAncyXw8V-16" target="Tet-FPK4zb9LAncyXw8V-9" edge="1">
          <mxGeometry relative="1" as="geometry" />
        </mxCell>
        <mxCell id="Tet-FPK4zb9LAncyXw8V-26" style="edgeStyle=orthogonalEdgeStyle;rounded=0;orthogonalLoop=1;jettySize=auto;html=1;exitX=1;exitY=0.5;exitDx=0;exitDy=0;labelBackgroundColor=none;fontColor=default;" parent="P-BhwncRUUNvh6ykNIa5-3" source="Tet-FPK4zb9LAncyXw8V-16" target="Tet-FPK4zb9LAncyXw8V-20" edge="1">
          <mxGeometry relative="1" as="geometry">
            <Array as="points">
              <mxPoint x="397" y="145" />
              <mxPoint x="397" y="175" />
            </Array>
          </mxGeometry>
        </mxCell>
        <mxCell id="Tet-FPK4zb9LAncyXw8V-27" style="edgeStyle=orthogonalEdgeStyle;rounded=0;orthogonalLoop=1;jettySize=auto;html=1;exitX=1;exitY=0.5;exitDx=0;exitDy=0;labelBackgroundColor=none;fontColor=default;" parent="P-BhwncRUUNvh6ykNIa5-3" source="Tet-FPK4zb9LAncyXw8V-17" target="Tet-FPK4zb9LAncyXw8V-10" edge="1">
          <mxGeometry relative="1" as="geometry">
            <Array as="points">
              <mxPoint x="368" y="175" />
              <mxPoint x="368" y="205" />
            </Array>
          </mxGeometry>
        </mxCell>
        <mxCell id="Tet-FPK4zb9LAncyXw8V-28" style="edgeStyle=orthogonalEdgeStyle;rounded=0;orthogonalLoop=1;jettySize=auto;html=1;exitX=1;exitY=0.5;exitDx=0;exitDy=0;entryX=0;entryY=0.5;entryDx=0;entryDy=0;labelBackgroundColor=none;fontColor=default;" parent="P-BhwncRUUNvh6ykNIa5-3" source="Tet-FPK4zb9LAncyXw8V-17" target="Tet-FPK4zb9LAncyXw8V-11" edge="1">
          <mxGeometry relative="1" as="geometry">
            <Array as="points">
              <mxPoint x="368" y="175" />
              <mxPoint x="368" y="235" />
            </Array>
          </mxGeometry>
        </mxCell>
        <mxCell id="Tet-FPK4zb9LAncyXw8V-29" style="edgeStyle=orthogonalEdgeStyle;rounded=0;orthogonalLoop=1;jettySize=auto;html=1;exitX=1;exitY=0.5;exitDx=0;exitDy=0;entryX=0;entryY=0.5;entryDx=0;entryDy=0;labelBackgroundColor=none;fontColor=default;" parent="P-BhwncRUUNvh6ykNIa5-3" source="Tet-FPK4zb9LAncyXw8V-17" target="Tet-FPK4zb9LAncyXw8V-12" edge="1">
          <mxGeometry relative="1" as="geometry">
            <Array as="points">
              <mxPoint x="368" y="175" />
              <mxPoint x="368" y="265" />
            </Array>
          </mxGeometry>
        </mxCell>
        <mxCell id="Tet-FPK4zb9LAncyXw8V-31" style="edgeStyle=orthogonalEdgeStyle;rounded=0;orthogonalLoop=1;jettySize=auto;html=1;exitX=1;exitY=0.5;exitDx=0;exitDy=0;entryX=0;entryY=0.5;entryDx=0;entryDy=0;entryPerimeter=0;startArrow=classic;startFill=1;labelBackgroundColor=none;fontColor=default;" parent="P-BhwncRUUNvh6ykNIa5-3" source="Tet-FPK4zb9LAncyXw8V-20" target="Tet-FPK4zb9LAncyXw8V-4" edge="1">
          <mxGeometry relative="1" as="geometry" />
        </mxCell>
        <mxCell id="Tet-FPK4zb9LAncyXw8V-33" style="edgeStyle=orthogonalEdgeStyle;rounded=0;orthogonalLoop=1;jettySize=auto;html=1;exitX=1;exitY=0.5;exitDx=0;exitDy=0;dashed=1;labelBackgroundColor=none;fontColor=default;" parent="P-BhwncRUUNvh6ykNIa5-3" source="Tet-FPK4zb9LAncyXw8V-10" target="Tet-FPK4zb9LAncyXw8V-3" edge="1">
          <mxGeometry relative="1" as="geometry">
            <Array as="points">
              <mxPoint x="800" y="205" />
              <mxPoint x="800" y="245" />
            </Array>
          </mxGeometry>
        </mxCell>
        <mxCell id="Tet-FPK4zb9LAncyXw8V-34" style="edgeStyle=orthogonalEdgeStyle;rounded=0;orthogonalLoop=1;jettySize=auto;html=1;exitX=1;exitY=0.5;exitDx=0;exitDy=0;entryX=0;entryY=0.5;entryDx=0;entryDy=0;entryPerimeter=0;startArrow=classic;startFill=1;labelBackgroundColor=none;fontColor=default;" parent="P-BhwncRUUNvh6ykNIa5-3" source="Tet-FPK4zb9LAncyXw8V-11" target="Tet-FPK4zb9LAncyXw8V-4" edge="1">
          <mxGeometry relative="1" as="geometry" />
        </mxCell>
        <mxCell id="Tet-FPK4zb9LAncyXw8V-35" style="edgeStyle=orthogonalEdgeStyle;rounded=0;orthogonalLoop=1;jettySize=auto;html=1;exitX=1;exitY=0.5;exitDx=0;exitDy=0;entryX=0;entryY=0.5;entryDx=0;entryDy=0;entryPerimeter=0;startArrow=classic;startFill=1;labelBackgroundColor=none;fontColor=default;" parent="P-BhwncRUUNvh6ykNIa5-3" source="Tet-FPK4zb9LAncyXw8V-12" target="Tet-FPK4zb9LAncyXw8V-4" edge="1">
          <mxGeometry relative="1" as="geometry" />
        </mxCell>
        <mxCell id="Tet-FPK4zb9LAncyXw8V-45" style="edgeStyle=orthogonalEdgeStyle;rounded=0;orthogonalLoop=1;jettySize=auto;html=1;exitX=0.5;exitY=1;exitDx=0;exitDy=0;labelBackgroundColor=none;fontColor=default;" parent="P-BhwncRUUNvh6ykNIa5-3" source="Tet-FPK4zb9LAncyXw8V-36" target="Tet-FPK4zb9LAncyXw8V-3" edge="1">
          <mxGeometry relative="1" as="geometry" />
        </mxCell>
        <mxCell id="Tet-FPK4zb9LAncyXw8V-48" style="edgeStyle=orthogonalEdgeStyle;rounded=0;orthogonalLoop=1;jettySize=auto;html=1;exitX=0;exitY=0.5;exitDx=0;exitDy=0;entryX=1;entryY=0.5;entryDx=0;entryDy=0;labelBackgroundColor=none;fontColor=default;" parent="P-BhwncRUUNvh6ykNIa5-3" source="Tet-FPK4zb9LAncyXw8V-36" target="Tet-FPK4zb9LAncyXw8V-47" edge="1">
          <mxGeometry relative="1" as="geometry" />
        </mxCell>
        <mxCell id="Tet-FPK4zb9LAncyXw8V-36" value="Slack interactive&lt;div&gt;approval&lt;/div&gt;" style="rounded=1;whiteSpace=wrap;html=1;labelBackgroundColor=none;" parent="P-BhwncRUUNvh6ykNIa5-3" vertex="1">
          <mxGeometry x="464" y="298" width="120" height="60" as="geometry" />
        </mxCell>
        <mxCell id="Tet-FPK4zb9LAncyXw8V-39" style="edgeStyle=orthogonalEdgeStyle;rounded=0;orthogonalLoop=1;jettySize=auto;html=1;exitX=1;exitY=0.5;exitDx=0;exitDy=0;entryX=0;entryY=1;entryDx=0;entryDy=-15;entryPerimeter=0;dashed=1;startArrow=classic;startFill=1;labelBackgroundColor=none;fontColor=default;" parent="P-BhwncRUUNvh6ykNIa5-3" source="Tet-FPK4zb9LAncyXw8V-10" target="Tet-FPK4zb9LAncyXw8V-4" edge="1">
          <mxGeometry relative="1" as="geometry">
            <Array as="points">
              <mxPoint x="800" y="205" />
              <mxPoint x="800" y="149" />
            </Array>
          </mxGeometry>
        </mxCell>
        <mxCell id="Tet-FPK4zb9LAncyXw8V-40" value="&lt;font style=&quot;font-size: 10px;&quot;&gt;Fetch struct and index&lt;/font&gt;" style="text;html=1;whiteSpace=wrap;strokeColor=none;fillColor=none;align=center;verticalAlign=middle;rounded=0;labelBackgroundColor=none;" parent="P-BhwncRUUNvh6ykNIa5-3" vertex="1">
          <mxGeometry x="774" y="245" width="106" height="10" as="geometry" />
        </mxCell>
        <mxCell id="Tet-FPK4zb9LAncyXw8V-41" value="&lt;font style=&quot;font-size: 10px;&quot;&gt;Store struct and index&lt;/font&gt;" style="text;html=1;whiteSpace=wrap;strokeColor=none;fillColor=none;align=center;verticalAlign=middle;rounded=0;labelBackgroundColor=none;" parent="P-BhwncRUUNvh6ykNIa5-3" vertex="1">
          <mxGeometry x="780" y="136" width="100" height="10" as="geometry" />
        </mxCell>
        <mxCell id="Tet-FPK4zb9LAncyXw8V-42" value="&lt;font style=&quot;font-size: 10px;&quot;&gt;Get struct and index&lt;/font&gt;" style="text;html=1;whiteSpace=wrap;strokeColor=none;fillColor=none;align=center;verticalAlign=middle;rounded=0;labelBackgroundColor=none;" parent="P-BhwncRUUNvh6ykNIa5-3" vertex="1">
          <mxGeometry x="786" y="114" width="94" height="10" as="geometry" />
        </mxCell>
        <mxCell id="Tet-FPK4zb9LAncyXw8V-46" style="edgeStyle=orthogonalEdgeStyle;rounded=0;orthogonalLoop=1;jettySize=auto;html=1;exitX=1;exitY=0.5;exitDx=0;exitDy=0;entryX=1;entryY=0.5;entryDx=0;entryDy=0;labelBackgroundColor=none;fontColor=default;" parent="P-BhwncRUUNvh6ykNIa5-3" source="Tet-FPK4zb9LAncyXw8V-12" target="Tet-FPK4zb9LAncyXw8V-36" edge="1">
          <mxGeometry relative="1" as="geometry" />
        </mxCell>
        <mxCell id="Tet-FPK4zb9LAncyXw8V-47" value="Sync Repository&lt;div&gt;(Archive)&lt;/div&gt;" style="rounded=1;whiteSpace=wrap;html=1;labelBackgroundColor=none;" parent="P-BhwncRUUNvh6ykNIa5-3" vertex="1">
          <mxGeometry x="212" y="298" width="120" height="60" as="geometry" />
        </mxCell>
        <mxCell id="Tet-FPK4zb9LAncyXw8V-49" value="&lt;font style=&quot;font-size: 10px;&quot;&gt;Execute consistency.sql&lt;/font&gt;" style="text;html=1;whiteSpace=wrap;strokeColor=none;fillColor=none;align=center;verticalAlign=middle;rounded=0;labelBackgroundColor=none;" parent="P-BhwncRUUNvh6ykNIa5-3" vertex="1">
          <mxGeometry x="686" y="366" width="141" height="10" as="geometry" />
        </mxCell>
      </root>
    </mxGraphModel>
  </diagram>
</mxfile>
